<svg width="200" height="200" viewBox="0 0 200 200" fill="none" xmlns="http://www.w3.org/2000/svg">
<path fill-rule="evenodd" clip-rule="evenodd" d="M100 200C155.228 200 200 155.228 200 100C200 44.7715 155.228 0 100 0C44.7715 0 0 44.7715 0 100C0 155.228 44.7715 200 100 200ZM45.0065 138.634C47.0502 140.211 50.214 141 54.4978 141C58.7424 141 63.4192 139.699 68.5284 137.096C73.6376 134.493 79.3166 130.095 85.5655 123.903C91.8537 117.711 98.81 109.251 106.434 98.5239C111.426 91.2276 116.496 84.8187 121.644 79.2972C126.793 73.7363 131.705 69.3585 136.382 66.1639C138.74 68.412 139.978 71.1136 140.096 74.2687C140.175 76.6745 139.644 79.2775 138.504 82.0777C137.404 84.8779 135.852 87.6386 133.847 90.3599C131.882 93.0813 129.642 95.5265 127.127 97.6957C124.611 99.8648 121.998 101.521 119.286 102.665C118.303 102.113 117.183 101.738 115.926 101.541C114.707 101.304 113.45 101.186 112.153 101.186C110.659 101.186 109.52 101.423 108.734 101.896C107.987 102.33 107.633 102.783 107.672 103.257C107.712 103.848 108.164 104.381 109.028 104.854C109.893 105.288 111.17 105.505 112.86 105.505C113.646 105.505 114.491 105.465 115.395 105.386C116.299 105.268 117.242 105.091 118.225 104.854C118.461 105.327 118.579 105.84 118.579 106.392C118.618 107.496 118.343 108.62 117.753 109.764C117.164 110.908 115.828 112.347 113.745 114.083C112.133 115.739 110.522 117.534 108.91 119.466C107.299 121.399 105.983 123.528 104.961 125.855C103.939 128.182 103.467 130.805 103.546 133.723C103.624 135.853 104.528 137.608 106.258 138.989C107.987 140.33 110.443 141 113.627 141C116.456 141 119.522 140.172 122.823 138.515C126.164 136.819 129.328 134.591 132.314 131.83C135.301 129.07 137.738 126.013 139.624 122.661C141.511 119.269 142.434 115.857 142.395 112.426C142.395 111.282 142.041 110.711 141.334 110.711C141.098 110.711 140.823 111.302 140.509 112.485C138.779 117.613 136.421 122.207 133.434 126.269C130.448 130.332 127.225 133.526 123.766 135.853C120.347 138.18 117.065 139.344 113.921 139.344C111.524 139.344 109.893 138.929 109.028 138.101C108.164 137.234 107.731 136.208 107.731 135.025C107.692 134.236 107.908 133.368 108.38 132.422C108.852 131.436 109.755 130.371 111.092 129.227C114.629 125.678 117.262 122.72 118.991 120.354C120.721 117.948 121.841 115.857 122.352 114.083C122.862 112.268 123.059 110.474 122.941 108.699C122.902 106.806 122.312 105.268 121.172 104.085C126.164 102.586 130.487 100.535 134.142 97.9323C137.836 95.2899 140.666 92.3516 142.631 89.1176C144.596 85.8441 145.5 82.551 145.343 79.2381C145.107 73.4405 142.71 68.688 138.151 64.9808C141.924 62.6538 145.323 61.1749 148.349 60.5438C149.45 60.3861 150 60.0706 150 59.5973C149.961 59.2029 149.568 59.0057 148.821 59.0057C147.721 59.0057 146.07 59.3607 143.869 60.0706C141.668 60.7805 139.055 61.9045 136.028 63.4426C130.408 59.8142 123.079 58 114.039 58C109.127 58 104.135 58.6507 99.0655 59.9522C93.9956 61.2143 89.1419 63.0088 84.5044 65.3357C79.9061 67.6232 75.7991 70.3051 72.1834 73.3813C68.5677 76.4576 65.738 79.8297 63.6943 83.4975C61.6507 87.1259 60.6878 90.8924 60.8057 94.7969C60.8843 97.7943 62.1026 100.2 64.4607 102.014C66.8581 103.789 69.3341 104.676 71.8886 104.676C76.9978 104.676 81.5961 103.533 85.6834 101.245C89.7707 98.9577 93.2293 95.9998 96.059 92.3713C98.9279 88.7429 101.09 84.9173 102.544 80.8945C103.998 76.8323 104.666 73.0658 104.548 69.5952C104.548 68.3331 104.352 67.7021 103.959 67.7021C103.526 67.7021 103.231 68.3725 103.074 69.7135C102.917 71.3699 102.19 73.5588 100.893 76.2801C99.5961 79.0014 97.9061 81.9199 95.8231 85.0356C93.7402 88.1119 91.3821 91.0304 88.7489 93.7912C86.155 96.5125 83.4236 98.7605 80.5546 100.535C77.6856 102.271 74.8362 103.138 72.0066 103.138C70.7489 103.138 69.4127 102.862 67.9978 102.31C66.6223 101.758 65.4236 100.851 64.4017 99.5887C63.4192 98.3267 62.8886 96.6308 62.81 94.5011C62.6921 90.7938 63.9301 86.9287 66.524 82.9059C69.1572 78.8437 72.8122 75.0575 77.4891 71.5474C82.1659 68.0373 87.5699 65.178 93.7009 62.9694C99.8319 60.7607 106.317 59.6565 113.155 59.6565C117.596 59.6565 121.605 60.0508 125.181 60.8396C128.797 61.6284 131.803 62.8313 134.201 64.4483C133.808 64.6455 133.415 64.8624 133.022 65.0991C132.668 65.2963 132.295 65.5132 131.902 65.7498C125.26 70.167 118.775 75.1955 112.448 80.8354C106.12 86.4752 99.8122 93.7123 93.524 102.547C87.786 110.474 82.952 116.863 79.0218 121.714C75.0917 126.565 71.7118 130.273 68.8821 132.836C66.0917 135.36 63.5175 137.076 61.1594 137.983C58.8013 138.89 56.3253 139.344 53.7314 139.344C50.8231 139.344 48.524 138.791 46.8341 137.687C45.1834 136.543 44.3581 135.104 44.3581 133.368V133.014C44.7511 133.29 45.1834 133.467 45.655 133.546C46.1659 133.625 46.6769 133.664 47.1878 133.664C48.0524 133.664 48.7991 133.368 49.4279 132.777C50.0961 132.146 50.4301 131.456 50.4301 130.706C50.4301 129.76 50.0961 129.07 49.4279 128.636C48.7991 128.202 48.1507 127.985 47.4825 127.985C46.2642 127.985 45.0459 128.379 43.8275 129.168C42.6092 129.918 42 131.16 42 132.895C42 135.143 43.0022 137.056 45.0065 138.634ZM116.869 103.493C115.376 103.927 113.941 104.144 112.565 104.144C111.662 104.144 110.974 104.026 110.502 103.789C110.031 103.513 109.795 103.296 109.795 103.138C109.795 102.744 110.581 102.547 112.153 102.547C114.197 102.547 115.769 102.862 116.869 103.493Z" fill="black"/>
</svg>
